<svg xmlns="http://www.w3.org/2000/svg" version="1.1" xmlns:xlink="http://www.w3.org/1999/xlink" xmlns:svgjs="http://svgjs.dev/svgjs" width="1000" height="1000" viewBox="0 0 1000 1000"><rect width="1000" height="1000" fill="#8dbdff"></rect><g transform="matrix(0.7,0,0,0.7,150.0000000000001,106.25)"><svg viewBox="0 0 320 360" data-background-color="#8dbdff" preserveAspectRatio="xMidYMid meet" height="1125" width="1000" xmlns="http://www.w3.org/2000/svg" xmlns:xlink="http://www.w3.org/1999/xlink"><g id="tight-bounds" transform="matrix(1,0,0,1,0,0)"><svg viewBox="0 0 320 360" height="360" width="320"><g><svg></svg></g><g><svg viewBox="0 0 320 360" height="360" width="320"><g><path xmlns="http://www.w3.org/2000/svg" d="M20.961 227.22l3.726 4.658-1.863-6.056c-0.466-2.795-3.726 0.466-1.863 1.398M25.153 224.425c1.397 2.329 2.795 4.658 2.795 6.987 0 3.261 2.795 4.658 5.123 5.589-3.261-3.726-5.124-13.974-7.918-12.576M204.017 26.929c7.918 0 15.371-0.932 23.756 0.931 20.495 5.124 37.729 15.371 49.374 29.811l32.606 52.169c1.397 13.042 4.192 27.482 3.726 43.319 3.261 0 2.795-4.658 6.521-5.59-3.726 9.316-5.59 20.961-6.521 34.469-2.329-7.453 0-18.632 0.466-24.687-3.261 5.124-5.124 1.397-5.124-0.932 0.466-3.726-1.397-3.261-2.795-4.658-5.124-4.658-8.384-9.782-12.11-17.7 2.329-6.055 2.795-14.905-4.658-19.563-2.329-1.397-5.124-3.726-6.521-7.453-1.863-5.124-5.124-11.179-4.193-19.097 0.466-2.329-6.987 5.124-11.179 1.863-18.166-12.576-36.332-27.016-58.224-39.127-11.645 0-20.029-4.192-24.221-9.316-3.726-4.658-0.932-10.713 4.658-11.179 3.261 0 6.987-0.932 9.782 0.932 0.466-1.863 2.329-4.192 4.657-4.192M157.904 16.215l0.932 0.466c4.658 0.932 6.987 7.453 12.11 5.124 0 3.261 0.466 6.521-0.466 8.85-1.397 3.726-5.59 3.726-8.85 3.726-31.208-1.863-49.374 11.179-68.471 22.358-5.124 3.261-10.713 5.59-14.906 9.782-20.029 18.632-41.921 35.866-47.045 70.335l-4.192 38.195c-0.466 4.192-5.124 8.384-4.192 13.508l3.26 22.824c-3.261-3.261-5.124 0.932-4.192 2.795 0.466 1.397 2.329 6.055 5.124 1.863 3.726 6.987 7.453 20.495 12.576 26.55 15.837 18.632 36.332 35.4 53.101 52.169 4.192-0.932 7.453-0.932 8.384-3.727 1.397 2.795-1.397 5.59-3.726 6.056 7.453 4.658 15.837 8.85 27.016 9.781 14.44 0.932 27.948 3.261 40.524 6.522 6.521-1.863 13.042-2.795 20.029-3.261 2.329 0 3.726-3.726 6.521-4.658l0.466-4.658c2.795 4.192 2.329-1.397 0.466-4.192 3.261 2.795 4.192 5.124 5.589 6.987 0-1.397 3.726-6.521 3.727-0.466l0.931-6.055c1.397-0.932 1.863 5.124 3.261 0.931 1.397-4.192 4.192-0.932 6.987-2.329-0.932 1.863-0.466 5.59 2.794 3.261l3.727-3.261c2.329 5.59 6.055 3.261 7.918 2.329 20.495-13.042 40.99-28.413 60.553-43.784l-0.466 6.055 2.329-7.453c2.329 2.329 4.192 0.466 5.124-0.931 2.795-4.658 6.521-9.316 12.577-13.508-7.453 20.029-16.303 35.866-27.482 48.908l-4.658 5.59c0 3.261-0.932 7.453-4.658 7.918-1.863 0.466-5.59-0.932-8.384 1.863-1.397 1.863 3.261 5.59-0.466 2.795-3.261-2.329-6.521 0-10.248 0.932-2.795 0.932 1.863 3.726 2.795 5.589 0.932 1.863 1.863 3.726 1.398 6.056l-5.124-5.59c-6.055 3.261-9.782 9.316-14.906 13.974-2.329 1.863-1.397 5.124-1.397 7.918-3.261 0-6.987-0.932-8.85 0.932-1.397 1.863-0.932 4.658-0.932 7.453-4.658-0.466-5.124-7.453-9.315-6.056-4.192 0.932-8.85 1.397-12.577 3.727 2.795 5.59-4.658 2.329-3.726 3.26-6.987-4.192-13.042-7.453-20.495-4.658-15.837-5.124-35.4-2.795-49.84-0.931 0-2.329 0.466-4.658-0.466-5.124-0.932 2.329-3.726 1.397-3.26 1.397-8.85-6.055-17.7-9.782-27.016-14.905-8.384 0.932-16.303-3.261-18.632-5.59-6.521-6.055-13.974-2.795-20.029-4.192-13.042-3.261-17.7-16.769-19.098-26.084-0.932-4.658-4.658-6.521-6.055-6.056-6.055-19.563-15.371-37.263-22.824-55.429-1.863-4.658-1.397-9.316-1.397-14.44 2.329 0.932 4.658 0.466 4.192-2.794-2.329-15.371-7.918-27.016-13.974-38.195 3.261-15.837 3.726-34.469 11.179-48.443 6.521-12.576 18.632-19.098 27.016-29.811 2.795-3.726 2.795-8.85 5.59-12.11 9.316-9.316 18.632-19.098 28.879-27.482 4.658-3.726 10.247 0 17.234-1.397 2.329-8.384 11.645-15.837 20.495-13.508 3.726 0.932 11.179-8.85 13.508-9.782 3.726-1.397 1.863 3.726 1.863 6.987 8.85-6.987 20.961-10.713 32.14-14.906" fill="#374151" fill-rule="nonzero" stroke="none" stroke-width="1" stroke-linecap="butt" stroke-linejoin="miter" stroke-miterlimit="10" stroke-dasharray="" stroke-dashoffset="0" font-family="none" font-weight="none" font-size="none" text-anchor="none" style="mix-blend-mode: normal" data-fill-palette-color="tertiary"></path></g><g transform="matrix(1,0,0,1,64,142.6414305882353)"><svg viewBox="0 0 192 74.71713882352942" height="74.71713882352942" width="192"><g><svg viewBox="0 0 192 74.71713882352942" height="74.71713882352942" width="192"><g><svg viewBox="0 0 192 74.71713882352942" height="74.71713882352942" width="192"><g transform="matrix(1,0,0,1,0,51.50530194153736)"><svg viewBox="0 0 192 23.21183688199206" height="23.21183688199206" width="192"><g><svg viewBox="0 0 192 23.21183688199206" height="23.21183688199206" width="192"><g><svg viewBox="0 0 192 23.21183688199206" height="23.21183688199206" width="192"><g transform="matrix(1,0,0,1,0,0)"><svg width="192" viewBox="1.5 -33 277.0799865722656 33.5" height="23.21183688199206" data-palette-color="#374151"><path d="M20.9 0L1.5 0 1.5-0.8 5.95-2.9 5.95-30.1 1.5-32.2 1.5-33 19.65-33Q23.4-33 26.38-32.18 29.35-31.35 31.08-29.73 32.8-28.1 32.8-25.6L32.8-25.6Q32.8-23.05 30.73-20.9 28.65-18.75 24.85-17.9L24.85-17.9Q29.95-17.2 32.9-15.05 35.85-12.9 35.85-9.6L35.85-9.6Q35.85-6.85 33.9-4.67 31.95-2.5 28.58-1.25 25.2 0 20.9 0L20.9 0ZM16.35-30.25L16.35-30.25 15.45-30.25 15.45-18.15 16.6-18.15Q19.75-18.15 21.53-19.75 23.3-21.35 23.3-24L23.3-24Q23.3-27.05 21.58-28.65 19.85-30.25 16.35-30.25ZM18-15.9L18-15.9 15.45-15.9 15.45-2.75 18.35-2.75Q21.8-2.75 23.8-4.65 25.8-6.55 25.8-9.45L25.8-9.45Q25.8-12.7 23.78-14.3 21.75-15.9 18-15.9ZM64.65 0L38.35 0 38.35-0.8 42.15-2.45 42.15-25.55 38.35-27.2 38.35-28 55.6-28 55.6-27.2 51.4-25.55 51.4-2.6 59.6-2.6 63.85-11.4 64.65-11.4 64.65 0ZM85.95 0.5L85.95 0.5Q81.95 0.5 78.77-0.7 75.6-1.9 73.8-4.78 72-7.65 72-12.6L72-12.6 72-25.5 68.15-27.2 68.15-28 85.1-28 85.1-27.2 81.25-25.5 81.25-12.25Q81.25-8.8 82.25-6.8 83.25-4.8 85-3.98 86.75-3.15 88.9-3.15L88.9-3.15Q90.85-3.15 92.47-3.9 94.1-4.65 95.07-6.33 96.05-8 96.05-10.75L96.05-10.75 96.05-25.6 92.2-27.2 92.2-28 103.2-28 103.2-27.2 99.35-25.55 99.35-11.75Q99.35-5.5 96-2.5 92.65 0.5 85.95 0.5ZM133.34 0L106.19 0 106.19-0.8 109.99-2.45 109.99-25.55 106.19-27.2 106.19-28 132.14-28 132.14-20.2 131.34-20.2 127.54-25.4 119.24-25.4 119.24-15.6 124.99-15.6 127.84-19.35 128.59-19.35 128.59-9.65 127.84-9.65 124.99-13.35 119.24-13.35 119.24-2.6 128.44-2.6 132.54-9.7 133.34-9.7 133.34 0ZM156.24 0L136.84 0 136.84-0.8 141.29-2.9 141.29-30.1 136.84-32.2 136.84-33 154.99-33Q158.74-33 161.72-32.18 164.69-31.35 166.42-29.73 168.14-28.1 168.14-25.6L168.14-25.6Q168.14-23.05 166.07-20.9 163.99-18.75 160.19-17.9L160.19-17.9Q165.29-17.2 168.24-15.05 171.19-12.9 171.19-9.6L171.19-9.6Q171.19-6.85 169.24-4.67 167.29-2.5 163.92-1.25 160.54 0 156.24 0L156.24 0ZM151.69-30.25L151.69-30.25 150.79-30.25 150.79-18.15 151.94-18.15Q155.09-18.15 156.87-19.75 158.64-21.35 158.64-24L158.64-24Q158.64-27.05 156.92-28.65 155.19-30.25 151.69-30.25ZM153.34-15.9L153.34-15.9 150.79-15.9 150.79-2.75 153.69-2.75Q157.14-2.75 159.14-4.65 161.14-6.55 161.14-9.45L161.14-9.45Q161.14-12.7 159.12-14.3 157.09-15.9 153.34-15.9ZM189.54 0.5L189.54 0.5Q184.99 0.5 181.46-1.4 177.94-3.3 175.94-6.6 173.94-9.9 173.94-14.05L173.94-14.05Q173.94-18.2 175.94-21.5 177.94-24.8 181.46-26.7 184.99-28.6 189.54-28.6L189.54-28.6Q194.09-28.6 197.61-26.7 201.14-24.8 203.14-21.5 205.14-18.2 205.14-14.05L205.14-14.05Q205.14-9.9 203.14-6.6 201.14-3.3 197.61-1.4 194.09 0.5 189.54 0.5ZM190.14-2.15L190.14-2.15Q191.79-2.15 192.99-3.55 194.19-4.95 194.84-7.35 195.49-9.75 195.49-12.8L195.49-12.8Q195.49-16.6 194.66-19.58 193.84-22.55 192.39-24.28 190.94-26 189.09-26L189.09-26Q187.49-26 186.24-24.6 184.99-23.2 184.31-20.8 183.64-18.4 183.64-15.35L183.64-15.35Q183.64-11.6 184.49-8.6 185.34-5.6 186.81-3.88 188.29-2.15 190.14-2.15ZM224.24 0.5L224.24 0.5Q219.69 0.5 216.16-1.4 212.64-3.3 210.64-6.6 208.64-9.9 208.64-14.05L208.64-14.05Q208.64-18.2 210.64-21.5 212.64-24.8 216.16-26.7 219.69-28.6 224.24-28.6L224.24-28.6Q228.79-28.6 232.31-26.7 235.84-24.8 237.84-21.5 239.84-18.2 239.84-14.05L239.84-14.05Q239.84-9.9 237.84-6.6 235.84-3.3 232.31-1.4 228.79 0.5 224.24 0.5ZM224.84-2.15L224.84-2.15Q226.49-2.15 227.69-3.55 228.89-4.95 229.54-7.35 230.19-9.75 230.19-12.8L230.19-12.8Q230.19-16.6 229.36-19.58 228.54-22.55 227.09-24.28 225.64-26 223.79-26L223.79-26Q222.19-26 220.94-24.6 219.69-23.2 219.01-20.8 218.34-18.4 218.34-15.35L218.34-15.35Q218.34-11.6 219.19-8.6 220.04-5.6 221.51-3.88 222.99-2.15 224.84-2.15ZM260.03 0L243.18 0 243.18-0.8 246.98-2.45 246.98-25.55 243.18-27.2 243.18-28 260.03-28 260.03-27.2 256.23-25.55 256.23-2.45 260.03-0.8 260.03 0ZM278.58 0L265.78 0 256.23-14.05 267.68-25.7 264.48-27.2 264.48-28 275.13-28 275.13-27.2 272.13-25.9 264.13-18.2 275.33-2.05 278.58-0.8 278.58 0Z" opacity="1" transform="matrix(1,0,0,1,0,0)" fill="#374151" class="undefined-text-0" data-fill-palette-color="primary" id="text-0"></path></svg></g></svg></g></svg></g></svg></g><g transform="matrix(1,0,0,1,69.03180746509716,0)"><svg viewBox="0 0 53.936385069805674 48.11813785636955" height="48.11813785636955" width="53.936385069805674"><g><svg xmlns="http://www.w3.org/2000/svg" xmlns:xlink="http://www.w3.org/1999/xlink" version="1.1" x="0" y="0" viewBox="8.386999130249023 13.005000114440918 84.19200134277344 75.1100082397461" enable-background="new 0 0 100 100" xml:space="preserve" height="48.11813785636955" width="53.936385069805674" class="icon-icon-0" data-fill-palette-color="accent" id="icon-0"><g fill="#374151" data-fill-palette-color="accent"><path d="M49.569 22.967c-9.975-5.691-20.677-9.125-31.045-9.962v58.351c10.367 0.814 21.05 4.154 31.045 9.699V22.967z" fill="#374151" data-fill-palette-color="accent"></path><path d="M82.444 13.005c-10.368 0.838-21.071 4.271-31.045 9.962v58.087c9.993-5.545 20.679-8.885 31.045-9.699V13.005z" fill="#374151" data-fill-palette-color="accent"></path><path d="M49.229 84.073c0.814 0.278 1.671 0.29 2.485 0.012 11.657-5.043 23.865-7.313 35.798-6.79V19.524c-1.074-0.048-2.155-0.059-3.24-0.055v53.594l-0.852 0.056c-10.672 0.697-21.732 4.177-32.021 10.048-0.594 0.203-1.237 0.203-1.83 0-10.29-5.871-21.349-9.351-32.021-10.048l-0.854-0.056V19.469c-1.084-0.004-2.166 0.006-3.239 0.055v57.771C25.387 76.771 37.569 79.03 49.229 84.073z" fill="#374151" data-fill-palette-color="accent"></path><path d="M92.579 26.009c-1.07-0.149-2.157-0.228-3.237-0.335v53.55l-0.968-0.056c-12.195-0.699-25.06 1.777-36.975 7.065l-0.916 0.381-0.915-0.381c-11.917-5.288-24.781-7.765-36.976-7.065l-0.967 0.056v-53.55c-1.081 0.108-2.168 0.187-3.238 0.335v58.707c0.594 0.307 1.044 0.748 1.044 0.748 12.951-1.75 26.393-1.536 39.18 2.651 0.588-0.058 1.212-0.095 1.873-0.095 0.661 0 1.285 0.037 1.872 0.095 12.785-4.188 26.229-4.401 39.179-2.651 0 0 0.474-0.462 1.044-0.748V26.009z" fill="#374151" data-fill-palette-color="accent"></path></g></svg></g></svg></g><g></g></svg></g></svg></g></svg></g></svg></g><defs></defs></svg><rect width="320" height="360" fill="none" stroke="none" visibility="hidden"></rect></g></svg></g></svg>